<?xml version="1.0" encoding="UTF-8" standalone="no"?>
<!-- Created with Inkscape (http://www.inkscape.org/) -->

<svg
   width="108"
   height="108"
   viewBox="0 0 108 108"
   version="1.1"
   id="svg1"
   xmlns:xlink="http://www.w3.org/1999/xlink"
   xmlns="http://www.w3.org/2000/svg"
   xmlns:svg="http://www.w3.org/2000/svg">
  <defs
     id="defs1">
    <linearGradient
       id="linearGradient7">
      <stop
         style="stop-color:#2bb4ff;stop-opacity:1;"
         offset="0"
         id="stop7" />
      <stop
         style="stop-color:#004569;stop-opacity:1;"
         offset="1"
         id="stop8" />
    </linearGradient>
    <radialGradient
       xlink:href="#linearGradient7"
       id="radialGradient8"
       cx="255.97063"
       cy="240.85789"
       fx="255.97063"
       fy="240.85789"
       r="215.28957"
       gradientTransform="matrix(0.15240234,0,0,0.14864472,14.98328,16.240575)"
       gradientUnits="userSpaceOnUse" />
  </defs>
  <g
     id="layer1">
    <g
       id="path1"
       transform="matrix(0.9,0,0,0.9,5.3993962,5.5263081)">
      <path
         style="color:#000000;fill:url(#radialGradient8);stroke-linecap:square;-inkscape-stroke:none"
         d="M 73.505779,81.173331 C 70.352568,83.466575 37.67182,83.482188 34.51642,81.191959 31.361019,78.901728 21.247262,47.825315 22.450328,44.11663 23.653394,40.407947 50.083497,21.186053 53.982432,21.18419 c 3.898937,-0.0019 30.347395,19.194767 31.554004,22.9023 1.206609,3.707532 -8.877447,34.793596 -12.030657,37.086841 z"
         id="path3" />
      <path
         style="color:#000000;fill:#000000;stroke-linecap:square;-inkscape-stroke:none"
         d="m 53.982422,19.964844 c -0.987937,4.72e-4 -1.801249,0.396056 -2.957031,0.957031 -1.155783,0.560975 -2.538503,1.342149 -4.082032,2.285156 -3.087057,1.886014 -6.811424,4.416476 -10.455078,7.066406 -3.643654,2.649931 -7.199903,5.413752 -9.945312,7.769532 -1.372705,1.17789 -2.541851,2.252973 -3.431641,3.179687 -0.88979,0.926715 -1.515472,1.577849 -1.820312,2.517578 -0.304841,0.93973 -0.180269,1.834857 -0.0039,3.107422 0.176363,1.272566 0.492234,2.828503 0.91211,4.587891 0.839752,3.518776 2.095952,7.844712 3.490234,12.128906 1.394283,4.284194 2.924304,8.52036 4.316406,11.859375 0.696052,1.669508 1.356493,3.111529 1.962891,4.244141 0.606398,1.132611 1.032496,1.929453 1.832031,2.509765 0.799535,0.580313 1.688345,0.73933 2.953125,0.964844 1.264781,0.225514 2.841505,0.406427 4.644531,0.550781 3.606053,0.28871 8.107914,0.429887 12.613282,0.427735 4.505368,-0.0022 9.007506,-0.147298 12.613281,-0.439453 1.802888,-0.146078 3.379967,-0.327965 4.644531,-0.554688 1.264565,-0.226722 2.154145,-0.38572 2.953125,-0.966797 0.79898,-0.581076 1.224763,-1.378528 1.830078,-2.511719 0.605316,-1.13319 1.264529,-2.577874 1.958985,-4.248046 1.388911,-3.340344 2.914499,-7.577757 4.304687,-11.863282 1.390188,-4.285524 2.642126,-8.613235 3.478516,-12.132812 0.418195,-1.759789 0.733057,-3.315157 0.908203,-4.587891 0.175146,-1.272733 0.297926,-2.167984 -0.0078,-3.107422 -0.305737,-0.939437 -0.93159,-1.58976 -1.822265,-2.515625 C 83.982372,40.267494 82.811329,39.194158 81.4375,38.017578 78.689841,35.664419 75.13056,32.904262 71.484375,30.257812 67.83819,27.611363 64.112296,25.08228 61.023437,23.199219 59.479008,22.257688 58.095773,21.477837 56.939453,20.917969 55.783134,20.358101 54.970366,19.964362 53.982422,19.964844 Z m 0,2.439453 c -0.01321,6e-6 0.853458,0.204917 1.894531,0.708984 1.041073,0.504068 2.374702,1.252151 3.876953,2.167969 3.004504,1.831636 6.694712,4.333303 10.298828,6.949219 3.604116,2.615916 7.126206,5.349776 9.798828,7.638672 1.336312,1.144448 2.461766,2.180083 3.263672,3.013671 0.801906,0.833589 1.265805,1.592634 1.261719,1.580079 -0.0041,-0.01256 0.06785,0.875598 -0.08984,2.021484 -0.15769,1.145886 -0.456507,2.645692 -0.863281,4.357422 -0.813548,3.42346 -2.053586,7.705326 -3.427734,11.941406 -1.374149,4.23608 -2.885348,8.432519 -4.236328,11.681641 -0.675491,1.624561 -1.312436,3.012952 -1.857422,4.033203 -0.544987,1.020251 -1.12396,1.697219 -1.113282,1.689453 0.01068,-0.0078 -0.810687,0.334936 -1.949218,0.539062 -1.138532,0.204127 -2.658457,0.38135 -4.41211,0.523438 -3.507304,0.284177 -7.962629,0.429513 -12.416015,0.431641 -4.453387,0.0021 -8.910395,-0.139097 -12.417969,-0.419922 -1.753787,-0.140413 -3.273383,-0.316493 -4.412109,-0.519532 -1.138726,-0.203038 -1.959905,-0.544865 -1.949219,-0.537109 0.01069,0.0078 -0.569273,-0.66777 -1.115235,-1.6875 -0.545961,-1.019729 -1.184285,-2.409288 -1.861328,-4.033203 -1.354085,-3.247829 -2.869851,-7.441016 -4.248047,-11.675781 -1.378195,-4.234765 -2.62068,-8.516772 -3.4375,-11.939453 -0.408409,-1.711341 -0.710355,-3.209734 -0.86914,-4.355469 -0.158785,-1.145735 -0.08772,-2.034044 -0.0918,-2.021485 -0.0041,0.01256 0.46061,-0.747677 1.261719,-1.582031 0.801109,-0.834353 1.924548,-1.869902 3.259765,-3.015625 2.670434,-2.291445 6.189401,-5.029081 9.791016,-7.648437 3.601615,-2.619357 7.290217,-5.124477 10.292969,-6.958985 1.501376,-0.917254 2.834408,-1.66681 3.875,-2.171875 1.040591,-0.505065 1.905782,-0.710943 1.892578,-0.710937 z"
         id="path4" />
    </g>
    <g
       id="g3"
       style="fill:#ffd500;fill-opacity:1;stroke:#202020;stroke-width:20;stroke-dasharray:none;stroke-opacity:1"
       transform="matrix(0.16459453,0,0,0.16459453,11.861648,11.647201)">
      <path
         style="color:#000000;fill:#ffd500;fill-opacity:1;stroke:#202020;stroke-width:20;stroke-linecap:round;stroke-dasharray:none;stroke-opacity:1"
         d="M 166.62695,121.37305 C 160.62598,115.37183 152.48683,112.00025 144,112 c -8.48683,2.5e-4 -16.62598,3.37183 -22.62695,9.37305 -12.49615,12.49667 -12.49615,32.75723 0,45.2539 L 224,269.25391 V 416 c 0,17.67311 14.32689,32 32,32 17.67311,0 32,-14.32689 32,-32 V 271.99999 L 390.62695,166.62695 c 12.49615,-12.49667 12.49615,-32.75723 0,-45.2539 C 384.62598,115.37183 376.48683,112.00025 368,112 c -8.48683,2.5e-4 -16.62598,3.37183 -22.62695,9.37305 L 256,207.99999 Z"
         id="path2" />
    </g>
  </g>
</svg>
