<svg xmlns="http://www.w3.org/2000/svg" viewBox="-112.5 -112.5 225.0 225.0">
<path d="M 9.18485099360515e-16 -15.0 L 14.265847744427303 -4.635254915624211" stroke="black" fill="none" stroke-width="1" stroke-linecap="round"/>
<path d="M 0 0 L 9.18485099360515e-16 -15.0" stroke="black" fill="none" stroke-width="1" stroke-linecap="round"/>
<path d="M 14.265847744427303 -4.635254915624211 L 8.816778784387097 12.135254915624213" stroke="black" fill="none" stroke-width="1" stroke-linecap="round"/>
<path d="M 0 0 L 14.265847744427303 -4.635254915624211" stroke="black" fill="none" stroke-width="1" stroke-linecap="round"/>
<path d="M 8.816778784387097 12.135254915624213 L -8.816778784387095 12.135254915624213" stroke="black" fill="none" stroke-width="1" stroke-linecap="round"/>
<path d="M 0 0 L 8.816778784387097 12.135254915624213" stroke="black" fill="none" stroke-width="1" stroke-linecap="round"/>
<path d="M -8.816778784387095 12.135254915624213 L -14.265847744427305 -4.635254915624209" stroke="black" fill="none" stroke-width="1" stroke-linecap="round"/>
<path d="M 0 0 L -8.816778784387095 12.135254915624213" stroke="black" fill="none" stroke-width="1" stroke-linecap="round"/>
<path d="M -14.265847744427305 -4.635254915624209 L 9.18485099360515e-16 -15.0" stroke="black" fill="none" stroke-width="1" stroke-linecap="round"/>
<path d="M 0 0 L -14.265847744427305 -4.635254915624209" stroke="black" fill="none" stroke-width="1" stroke-linecap="round"/>
<path d="M 1.83697019872103e-15 -30.0 L 15.107775200514029 -20.794068644530263" stroke="black" fill="none" stroke-width="1" stroke-linecap="round"/>
<path d="M 9.18485099360515e-16 -15.0 L 1.83697019872103e-15 -30.0" stroke="black" fill="none" stroke-width="1" stroke-linecap="round"/>
<path d="M 15.107775200514029 -20.794068644530263 L 28.531695488854606 -9.270509831248422" stroke="black" fill="none" stroke-width="1" stroke-linecap="round"/>
<path d="M 14.265847744427303 -4.635254915624211 L 15.107775200514029 -20.794068644530263" stroke="black" fill="none" stroke-width="1" stroke-linecap="round"/>
<path d="M 9.18485099360515e-16 -15.0 L 15.107775200514029 -20.794068644530263" stroke="black" fill="none" stroke-width="1" stroke-linecap="round"/>
<path d="M 28.531695488854606 -9.270509831248422 L 24.44489376882445 7.942627457812106" stroke="black" fill="none" stroke-width="1" stroke-linecap="round"/>
<path d="M 14.265847744427303 -4.635254915624211 L 28.531695488854606 -9.270509831248422" stroke="black" fill="none" stroke-width="1" stroke-linecap="round"/>
<path d="M 24.44489376882445 7.942627457812106 L 17.633557568774194 24.270509831248425" stroke="black" fill="none" stroke-width="1" stroke-linecap="round"/>
<path d="M 8.816778784387097 12.135254915624213 L 24.44489376882445 7.942627457812106" stroke="black" fill="none" stroke-width="1" stroke-linecap="round"/>
<path d="M 14.265847744427303 -4.635254915624211 L 24.44489376882445 7.942627457812106" stroke="black" fill="none" stroke-width="1" stroke-linecap="round"/>
<path d="M 17.633557568774194 24.270509831248425 L 1.7082434523835587e-15 25.702882373436317" stroke="black" fill="none" stroke-width="1" stroke-linecap="round"/>
<path d="M 8.816778784387097 12.135254915624213 L 17.633557568774194 24.270509831248425" stroke="black" fill="none" stroke-width="1" stroke-linecap="round"/>
<path d="M 1.7082434523835587e-15 25.702882373436317 L -17.63355756877419 24.270509831248425" stroke="black" fill="none" stroke-width="1" stroke-linecap="round"/>
<path d="M -8.816778784387095 12.135254915624213 L 1.7082434523835587e-15 25.702882373436317" stroke="black" fill="none" stroke-width="1" stroke-linecap="round"/>
<path d="M 8.816778784387097 12.135254915624213 L 1.7082434523835587e-15 25.702882373436317" stroke="black" fill="none" stroke-width="1" stroke-linecap="round"/>
<path d="M -17.63355756877419 24.270509831248425 L -24.44489376882445 7.942627457812109" stroke="black" fill="none" stroke-width="1" stroke-linecap="round"/>
<path d="M -8.816778784387095 12.135254915624213 L -17.63355756877419 24.270509831248425" stroke="black" fill="none" stroke-width="1" stroke-linecap="round"/>
<path d="M -24.44489376882445 7.942627457812109 L -28.53169548885461 -9.270509831248418" stroke="black" fill="none" stroke-width="1" stroke-linecap="round"/>
<path d="M -14.265847744427305 -4.635254915624209 L -24.44489376882445 7.942627457812109" stroke="black" fill="none" stroke-width="1" stroke-linecap="round"/>
<path d="M -8.816778784387095 12.135254915624213 L -24.44489376882445 7.942627457812109" stroke="black" fill="none" stroke-width="1" stroke-linecap="round"/>
<path d="M -28.53169548885461 -9.270509831248418 L -15.107775200514032 -20.794068644530263" stroke="black" fill="none" stroke-width="1" stroke-linecap="round"/>
<path d="M -14.265847744427305 -4.635254915624209 L -28.53169548885461 -9.270509831248418" stroke="black" fill="none" stroke-width="1" stroke-linecap="round"/>
<path d="M -15.107775200514032 -20.794068644530263 L 1.83697019872103e-15 -30.0" stroke="black" fill="none" stroke-width="1" stroke-linecap="round"/>
<path d="M 9.18485099360515e-16 -15.0 L -15.107775200514032 -20.794068644530263" stroke="black" fill="none" stroke-width="1" stroke-linecap="round"/>
<path d="M -14.265847744427305 -4.635254915624209 L -15.107775200514032 -20.794068644530263" stroke="black" fill="none" stroke-width="1" stroke-linecap="round"/>
<path d="M 2.7554552980815444e-15 -45.0 L 15.27517304292323 -36.25382758519742" stroke="black" fill="none" stroke-width="1" stroke-linecap="round"/>
<path d="M 1.83697019872103e-15 -30.0 L 2.7554552980815444e-15 -45.0" stroke="black" fill="none" stroke-width="1" stroke-linecap="round"/>
<path d="M 15.27517304292323 -36.25382758519742 L 29.75915090326164 -25.730601694973473" stroke="black" fill="none" stroke-width="1" stroke-linecap="round"/>
<path d="M 15.107775200514029 -20.794068644530263 L 15.27517304292323 -36.25382758519742" stroke="black" fill="none" stroke-width="1" stroke-linecap="round"/>
<path d="M 1.83697019872103e-15 -30.0 L 15.27517304292323 -36.25382758519742" stroke="black" fill="none" stroke-width="1" stroke-linecap="round"/>
<path d="M 29.75915090326164 -25.730601694973473 L 42.79754323328191 -13.905764746872633" stroke="black" fill="none" stroke-width="1" stroke-linecap="round"/>
<path d="M 28.531695488854606 -9.270509831248422 L 29.75915090326164 -25.730601694973473" stroke="black" fill="none" stroke-width="1" stroke-linecap="round"/>
<path d="M 15.107775200514029 -20.794068644530263 L 29.75915090326164 -25.730601694973473" stroke="black" fill="none" stroke-width="1" stroke-linecap="round"/>
<path d="M 42.79754323328191 -13.905764746872633 L 39.19972702782435 3.324504025042943" stroke="black" fill="none" stroke-width="1" stroke-linecap="round"/>
<path d="M 28.531695488854606 -9.270509831248422 L 42.79754323328191 -13.905764746872633" stroke="black" fill="none" stroke-width="1" stroke-linecap="round"/>
<path d="M 39.19972702782435 3.324504025042943 L 33.66733977747606 20.351441186718155" stroke="black" fill="none" stroke-width="1" stroke-linecap="round"/>
<path d="M 24.44489376882445 7.942627457812106 L 39.19972702782435 3.324504025042943" stroke="black" fill="none" stroke-width="1" stroke-linecap="round"/>
<path d="M 28.531695488854606 -9.270509831248422 L 39.19972702782435 3.324504025042943" stroke="black" fill="none" stroke-width="1" stroke-linecap="round"/>
<path d="M 33.66733977747606 20.351441186718155 L 26.45033635316129 36.405764746872634" stroke="black" fill="none" stroke-width="1" stroke-linecap="round"/>
<path d="M 17.633557568774194 24.270509831248425 L 33.66733977747606 20.351441186718155" stroke="black" fill="none" stroke-width="1" stroke-linecap="round"/>
<path d="M 24.44489376882445 7.942627457812106 L 33.66733977747606 20.351441186718155" stroke="black" fill="none" stroke-width="1" stroke-linecap="round"/>
<path d="M 26.45033635316129 36.405764746872634 L 8.951590609990115 38.30848406840979" stroke="black" fill="none" stroke-width="1" stroke-linecap="round"/>
<path d="M 17.633557568774194 24.270509831248425 L 26.45033635316129 36.405764746872634" stroke="black" fill="none" stroke-width="1" stroke-linecap="round"/>
<path d="M 8.951590609990115 38.30848406840979 L -8.951590609990111 38.30848406840979" stroke="black" fill="none" stroke-width="1" stroke-linecap="round"/>
<path d="M 1.7082434523835587e-15 25.702882373436317 L 8.951590609990115 38.30848406840979" stroke="black" fill="none" stroke-width="1" stroke-linecap="round"/>
<path d="M 17.633557568774194 24.270509831248425 L 8.951590609990115 38.30848406840979" stroke="black" fill="none" stroke-width="1" stroke-linecap="round"/>
<path d="M -8.951590609990111 38.30848406840979 L -26.450336353161287 36.405764746872634" stroke="black" fill="none" stroke-width="1" stroke-linecap="round"/>
<path d="M -17.63355756877419 24.270509831248425 L -8.951590609990111 38.30848406840979" stroke="black" fill="none" stroke-width="1" stroke-linecap="round"/>
<path d="M 1.7082434523835587e-15 25.702882373436317 L -8.951590609990111 38.30848406840979" stroke="black" fill="none" stroke-width="1" stroke-linecap="round"/>
<path d="M -26.450336353161287 36.405764746872634 L -33.66733977747605 20.351441186718166" stroke="black" fill="none" stroke-width="1" stroke-linecap="round"/>
<path d="M -17.63355756877419 24.270509831248425 L -26.450336353161287 36.405764746872634" stroke="black" fill="none" stroke-width="1" stroke-linecap="round"/>
<path d="M -33.66733977747605 20.351441186718166 L -39.19972702782435 3.324504025042954" stroke="black" fill="none" stroke-width="1" stroke-linecap="round"/>
<path d="M -24.44489376882445 7.942627457812109 L -33.66733977747605 20.351441186718166" stroke="black" fill="none" stroke-width="1" stroke-linecap="round"/>
<path d="M -17.63355756877419 24.270509831248425 L -33.66733977747605 20.351441186718166" stroke="black" fill="none" stroke-width="1" stroke-linecap="round"/>
<path d="M -39.19972702782435 3.324504025042954 L -42.797543233281914 -13.905764746872629" stroke="black" fill="none" stroke-width="1" stroke-linecap="round"/>
<path d="M -28.53169548885461 -9.270509831248418 L -39.19972702782435 3.324504025042954" stroke="black" fill="none" stroke-width="1" stroke-linecap="round"/>
<path d="M -24.44489376882445 7.942627457812109 L -39.19972702782435 3.324504025042954" stroke="black" fill="none" stroke-width="1" stroke-linecap="round"/>
<path d="M -42.797543233281914 -13.905764746872629 L -29.75915090326164 -25.73060169497347" stroke="black" fill="none" stroke-width="1" stroke-linecap="round"/>
<path d="M -28.53169548885461 -9.270509831248418 L -42.797543233281914 -13.905764746872629" stroke="black" fill="none" stroke-width="1" stroke-linecap="round"/>
<path d="M -29.75915090326164 -25.73060169497347 L -15.275173042923234 -36.25382758519742" stroke="black" fill="none" stroke-width="1" stroke-linecap="round"/>
<path d="M -15.107775200514032 -20.794068644530263 L -29.75915090326164 -25.73060169497347" stroke="black" fill="none" stroke-width="1" stroke-linecap="round"/>
<path d="M -28.53169548885461 -9.270509831248418 L -29.75915090326164 -25.73060169497347" stroke="black" fill="none" stroke-width="1" stroke-linecap="round"/>
<path d="M -15.275173042923234 -36.25382758519742 L 2.7554552980815444e-15 -45.0" stroke="black" fill="none" stroke-width="1" stroke-linecap="round"/>
<path d="M 1.83697019872103e-15 -30.0 L -15.275173042923234 -36.25382758519742" stroke="black" fill="none" stroke-width="1" stroke-linecap="round"/>
<path d="M -15.107775200514032 -20.794068644530263 L -15.275173042923234 -36.25382758519742" stroke="black" fill="none" stroke-width="1" stroke-linecap="round"/>
<path d="M 3.67394039744206e-15 -60.0 L 15.334640723944691 -51.49228893114547" stroke="black" fill="none" stroke-width="1" stroke-linecap="round"/>
<path d="M 2.7554552980815444e-15 -45.0 L 3.67394039744206e-15 -60.0" stroke="black" fill="none" stroke-width="1" stroke-linecap="round"/>
<path d="M 15.334640723944691 -51.49228893114547 L 30.215550401028057 -41.588137289060526" stroke="black" fill="none" stroke-width="1" stroke-linecap="round"/>
<path d="M 15.27517304292323 -36.25382758519742 L 15.334640723944691 -51.49228893114547" stroke="black" fill="none" stroke-width="1" stroke-linecap="round"/>
<path d="M 2.7554552980815444e-15 -45.0 L 15.334640723944691 -51.49228893114547" stroke="black" fill="none" stroke-width="1" stroke-linecap="round"/>
<path d="M 30.215550401028057 -41.588137289060526 L 44.23341234058564 -30.496102344541573" stroke="black" fill="none" stroke-width="1" stroke-linecap="round"/>
<path d="M 29.75915090326164 -25.730601694973473 L 30.215550401028057 -41.588137289060526" stroke="black" fill="none" stroke-width="1" stroke-linecap="round"/>
<path d="M 15.27517304292323 -36.25382758519742 L 30.215550401028057 -41.588137289060526" stroke="black" fill="none" stroke-width="1" stroke-linecap="round"/>
<path d="M 44.23341234058564 -30.496102344541573 L 57.06339097770921 -18.541019662496844" stroke="black" fill="none" stroke-width="1" stroke-linecap="round"/>
<path d="M 42.79754323328191 -13.905764746872633 L 44.23341234058564 -30.496102344541573" stroke="black" fill="none" stroke-width="1" stroke-linecap="round"/>
<path d="M 29.75915090326164 -25.730601694973473 L 44.23341234058564 -30.496102344541573" stroke="black" fill="none" stroke-width="1" stroke-linecap="round"/>
<path d="M 57.06339097770921 -18.541019662496844 L 53.71074151325175 -1.3278823734363152" stroke="black" fill="none" stroke-width="1" stroke-linecap="round"/>
<path d="M 42.79754323328191 -13.905764746872633 L 57.06339097770921 -18.541019662496844" stroke="black" fill="none" stroke-width="1" stroke-linecap="round"/>
<path d="M 53.71074151325175 -1.3278823734363152 L 48.8897875376489 15.885254915624213" stroke="black" fill="none" stroke-width="1" stroke-linecap="round"/>
<path d="M 39.19972702782435 3.324504025042943 L 53.71074151325175 -1.3278823734363152" stroke="black" fill="none" stroke-width="1" stroke-linecap="round"/>
<path d="M 42.79754323328191 -13.905764746872633 L 53.71074151325175 -1.3278823734363152" stroke="black" fill="none" stroke-width="1" stroke-linecap="round"/>
<path d="M 48.8897875376489 15.885254915624213 L 42.67239298881565 32.644661157823414" stroke="black" fill="none" stroke-width="1" stroke-linecap="round"/>
<path d="M 33.66733977747606 20.351441186718155 L 48.8897875376489 15.885254915624213" stroke="black" fill="none" stroke-width="1" stroke-linecap="round"/>
<path d="M 39.19972702782435 3.324504025042943 L 48.8897875376489 15.885254915624213" stroke="black" fill="none" stroke-width="1" stroke-linecap="round"/>
<path d="M 42.67239298881565 32.644661157823414 L 35.26711513754839 48.54101966249685" stroke="black" fill="none" stroke-width="1" stroke-linecap="round"/>
<path d="M 26.45033635316129 36.405764746872634 L 42.67239298881565 32.644661157823414" stroke="black" fill="none" stroke-width="1" stroke-linecap="round"/>
<path d="M 33.66733977747606 20.351441186718155 L 42.67239298881565 32.644661157823414" stroke="black" fill="none" stroke-width="1" stroke-linecap="round"/>
<path d="M 35.26711513754839 48.54101966249685 L 17.860423092204854 50.67161249129994" stroke="black" fill="none" stroke-width="1" stroke-linecap="round"/>
<path d="M 26.45033635316129 36.405764746872634 L 35.26711513754839 48.54101966249685" stroke="black" fill="none" stroke-width="1" stroke-linecap="round"/>
<path d="M 17.860423092204854 50.67161249129994 L 3.4164869047671174e-15 51.405764746872634" stroke="black" fill="none" stroke-width="1" stroke-linecap="round"/>
<path d="M 8.951590609990115 38.30848406840979 L 17.860423092204854 50.67161249129994" stroke="black" fill="none" stroke-width="1" stroke-linecap="round"/>
<path d="M 26.45033635316129 36.405764746872634 L 17.860423092204854 50.67161249129994" stroke="black" fill="none" stroke-width="1" stroke-linecap="round"/>
<path d="M 3.4164869047671174e-15 51.405764746872634 L -17.86042309220486 50.67161249129994" stroke="black" fill="none" stroke-width="1" stroke-linecap="round"/>
<path d="M -8.951590609990111 38.30848406840979 L 3.4164869047671174e-15 51.405764746872634" stroke="black" fill="none" stroke-width="1" stroke-linecap="round"/>
<path d="M 8.951590609990115 38.30848406840979 L 3.4164869047671174e-15 51.405764746872634" stroke="black" fill="none" stroke-width="1" stroke-linecap="round"/>
<path d="M -17.86042309220486 50.67161249129994 L -35.26711513754838 48.54101966249685" stroke="black" fill="none" stroke-width="1" stroke-linecap="round"/>
<path d="M -26.450336353161287 36.405764746872634 L -17.86042309220486 50.67161249129994" stroke="black" fill="none" stroke-width="1" stroke-linecap="round"/>
<path d="M -8.951590609990111 38.30848406840979 L -17.86042309220486 50.67161249129994" stroke="black" fill="none" stroke-width="1" stroke-linecap="round"/>
<path d="M -35.26711513754838 48.54101966249685 L -42.67239298881565 32.64466115782342" stroke="black" fill="none" stroke-width="1" stroke-linecap="round"/>
<path d="M -26.450336353161287 36.405764746872634 L -35.26711513754838 48.54101966249685" stroke="black" fill="none" stroke-width="1" stroke-linecap="round"/>
<path d="M -42.67239298881565 32.64466115782342 L -48.8897875376489 15.885254915624218" stroke="black" fill="none" stroke-width="1" stroke-linecap="round"/>
<path d="M -33.66733977747605 20.351441186718166 L -42.67239298881565 32.64466115782342" stroke="black" fill="none" stroke-width="1" stroke-linecap="round"/>
<path d="M -26.450336353161287 36.405764746872634 L -42.67239298881565 32.64466115782342" stroke="black" fill="none" stroke-width="1" stroke-linecap="round"/>
<path d="M -48.8897875376489 15.885254915624218 L -53.710741513251754 -1.3278823734363108" stroke="black" fill="none" stroke-width="1" stroke-linecap="round"/>
<path d="M -39.19972702782435 3.324504025042954 L -48.8897875376489 15.885254915624218" stroke="black" fill="none" stroke-width="1" stroke-linecap="round"/>
<path d="M -33.66733977747605 20.351441186718166 L -48.8897875376489 15.885254915624218" stroke="black" fill="none" stroke-width="1" stroke-linecap="round"/>
<path d="M -53.710741513251754 -1.3278823734363108 L -57.06339097770922 -18.541019662496836" stroke="black" fill="none" stroke-width="1" stroke-linecap="round"/>
<path d="M -42.797543233281914 -13.905764746872629 L -53.710741513251754 -1.3278823734363108" stroke="black" fill="none" stroke-width="1" stroke-linecap="round"/>
<path d="M -39.19972702782435 3.324504025042954 L -53.710741513251754 -1.3278823734363108" stroke="black" fill="none" stroke-width="1" stroke-linecap="round"/>
<path d="M -57.06339097770922 -18.541019662496836 L -44.233412340585645 -30.496102344541566" stroke="black" fill="none" stroke-width="1" stroke-linecap="round"/>
<path d="M -42.797543233281914 -13.905764746872629 L -57.06339097770922 -18.541019662496836" stroke="black" fill="none" stroke-width="1" stroke-linecap="round"/>
<path d="M -44.233412340585645 -30.496102344541566 L -30.215550401028064 -41.588137289060526" stroke="black" fill="none" stroke-width="1" stroke-linecap="round"/>
<path d="M -29.75915090326164 -25.73060169497347 L -44.233412340585645 -30.496102344541566" stroke="black" fill="none" stroke-width="1" stroke-linecap="round"/>
<path d="M -42.797543233281914 -13.905764746872629 L -44.233412340585645 -30.496102344541566" stroke="black" fill="none" stroke-width="1" stroke-linecap="round"/>
<path d="M -30.215550401028064 -41.588137289060526 L -15.334640723944696 -51.49228893114547" stroke="black" fill="none" stroke-width="1" stroke-linecap="round"/>
<path d="M -15.275173042923234 -36.25382758519742 L -30.215550401028064 -41.588137289060526" stroke="black" fill="none" stroke-width="1" stroke-linecap="round"/>
<path d="M -29.75915090326164 -25.73060169497347 L -30.215550401028064 -41.588137289060526" stroke="black" fill="none" stroke-width="1" stroke-linecap="round"/>
<path d="M -15.334640723944696 -51.49228893114547 L 3.67394039744206e-15 -60.0" stroke="black" fill="none" stroke-width="1" stroke-linecap="round"/>
<path d="M 2.7554552980815444e-15 -45.0 L -15.334640723944696 -51.49228893114547" stroke="black" fill="none" stroke-width="1" stroke-linecap="round"/>
<path d="M -15.275173042923234 -36.25382758519742 L -15.334640723944696 -51.49228893114547" stroke="black" fill="none" stroke-width="1" stroke-linecap="round"/>
<path d="M 4.592425496802574e-15 -75.0 L 15.362321192661508 -66.63737545788" stroke="black" fill="none" stroke-width="1" stroke-linecap="round"/>
<path d="M 3.67394039744206e-15 -60.0 L 4.592425496802574e-15 -75.0" stroke="black" fill="none" stroke-width="1" stroke-linecap="round"/>
<path d="M 15.362321192661508 -66.63737545788 L 30.43165300604812 -57.13363262425876" stroke="black" fill="none" stroke-width="1" stroke-linecap="round"/>
<path d="M 15.334640723944691 -51.49228893114547 L 15.362321192661508 -66.63737545788" stroke="black" fill="none" stroke-width="1" stroke-linecap="round"/>
<path d="M 3.67394039744206e-15 -60.0 L 15.362321192661508 -66.63737545788" stroke="black" fill="none" stroke-width="1" stroke-linecap="round"/>
<path d="M 30.43165300604812 -57.13363262425876 L 44.93341566112434 -46.59748532430594" stroke="black" fill="none" stroke-width="1" stroke-linecap="round"/>
<path d="M 30.215550401028057 -41.588137289060526 L 30.43165300604812 -57.13363262425876" stroke="black" fill="none" stroke-width="1" stroke-linecap="round"/>
<path d="M 15.334640723944691 -51.49228893114547 L 30.43165300604812 -57.13363262425876" stroke="black" fill="none" stroke-width="1" stroke-linecap="round"/>
<path d="M 44.93341566112434 -46.59748532430594 L 58.62869183644469 -35.202517152728824" stroke="black" fill="none" stroke-width="1" stroke-linecap="round"/>
<path d="M 44.23341234058564 -30.496102344541573 L 44.93341566112434 -46.59748532430594" stroke="black" fill="none" stroke-width="1" stroke-linecap="round"/>
<path d="M 30.215550401028057 -41.588137289060526 L 44.93341566112434 -46.59748532430594" stroke="black" fill="none" stroke-width="1" stroke-linecap="round"/>
<path d="M 58.62869183644469 -35.202517152728824 L 71.32923872213651 -23.176274578121056" stroke="black" fill="none" stroke-width="1" stroke-linecap="round"/>
<path d="M 57.06339097770921 -18.541019662496844 L 58.62869183644469 -35.202517152728824" stroke="black" fill="none" stroke-width="1" stroke-linecap="round"/>
<path d="M 44.23341234058564 -30.496102344541573 L 58.62869183644469 -35.202517152728824" stroke="black" fill="none" stroke-width="1" stroke-linecap="round"/>
<path d="M 71.32923872213651 -23.176274578121056 L 68.12312847960231 -5.981645801329101" stroke="black" fill="none" stroke-width="1" stroke-linecap="round"/>
<path d="M 57.06339097770921 -18.541019662496844 L 71.32923872213651 -23.176274578121056" stroke="black" fill="none" stroke-width="1" stroke-linecap="round"/>
<path d="M 68.12312847960231 -5.981645801329101 L 63.74121155270499 11.286958461764184" stroke="black" fill="none" stroke-width="1" stroke-linecap="round"/>
<path d="M 53.71074151325175 -1.3278823734363152 L 68.12312847960231 -5.981645801329101" stroke="black" fill="none" stroke-width="1" stroke-linecap="round"/>
<path d="M 57.06339097770921 -18.541019662496844 L 68.12312847960231 -5.981645801329101" stroke="black" fill="none" stroke-width="1" stroke-linecap="round"/>
<path d="M 63.74121155270499 11.286958461764184 L 58.20203111524979 28.334802903563272" stroke="black" fill="none" stroke-width="1" stroke-linecap="round"/>
<path d="M 48.8897875376489 15.885254915624213 L 63.74121155270499 11.286958461764184" stroke="black" fill="none" stroke-width="1" stroke-linecap="round"/>
<path d="M 53.71074151325175 -1.3278823734363152 L 63.74121155270499 11.286958461764184" stroke="black" fill="none" stroke-width="1" stroke-linecap="round"/>
<path d="M 58.20203111524979 28.334802903563272 L 51.59684546352781 44.881023367942404" stroke="black" fill="none" stroke-width="1" stroke-linecap="round"/>
<path d="M 42.67239298881565 32.644661157823414 L 58.20203111524979 28.334802903563272" stroke="black" fill="none" stroke-width="1" stroke-linecap="round"/>
<path d="M 48.8897875376489 15.885254915624213 L 58.20203111524979 28.334802903563272" stroke="black" fill="none" stroke-width="1" stroke-linecap="round"/>
<path d="M 51.59684546352781 44.881023367942404 L 44.08389392193549 60.67627457812106" stroke="black" fill="none" stroke-width="1" stroke-linecap="round"/>
<path d="M 35.26711513754839 48.54101966249685 L 51.59684546352781 44.881023367942404" stroke="black" fill="none" stroke-width="1" stroke-linecap="round"/>
<path d="M 42.67239298881565 32.644661157823414 L 51.59684546352781 44.881023367942404" stroke="black" fill="none" stroke-width="1" stroke-linecap="round"/>
<path d="M 44.08389392193549 60.67627457812106 L 26.740087627708682 62.940515043995504" stroke="black" fill="none" stroke-width="1" stroke-linecap="round"/>
<path d="M 35.26711513754839 48.54101966249685 L 44.08389392193549 60.67627457812106" stroke="black" fill="none" stroke-width="1" stroke-linecap="round"/>
<path d="M 26.740087627708682 62.940515043995504 L 8.962582217621033 64.10935658323726" stroke="black" fill="none" stroke-width="1" stroke-linecap="round"/>
<path d="M 17.860423092204854 50.67161249129994 L 26.740087627708682 62.940515043995504" stroke="black" fill="none" stroke-width="1" stroke-linecap="round"/>
<path d="M 35.26711513754839 48.54101966249685 L 26.740087627708682 62.940515043995504" stroke="black" fill="none" stroke-width="1" stroke-linecap="round"/>
<path d="M 8.962582217621033 64.10935658323726 L -8.962582217621026 64.10935658323726" stroke="black" fill="none" stroke-width="1" stroke-linecap="round"/>
<path d="M 3.4164869047671174e-15 51.405764746872634 L 8.962582217621033 64.10935658323726" stroke="black" fill="none" stroke-width="1" stroke-linecap="round"/>
<path d="M 17.860423092204854 50.67161249129994 L 8.962582217621033 64.10935658323726" stroke="black" fill="none" stroke-width="1" stroke-linecap="round"/>
<path d="M -8.962582217621026 64.10935658323726 L -26.740087627708682 62.940515043995504" stroke="black" fill="none" stroke-width="1" stroke-linecap="round"/>
<path d="M -17.86042309220486 50.67161249129994 L -8.962582217621026 64.10935658323726" stroke="black" fill="none" stroke-width="1" stroke-linecap="round"/>
<path d="M 3.4164869047671174e-15 51.405764746872634 L -8.962582217621026 64.10935658323726" stroke="black" fill="none" stroke-width="1" stroke-linecap="round"/>
<path d="M -26.740087627708682 62.940515043995504 L -44.08389392193548 60.67627457812106" stroke="black" fill="none" stroke-width="1" stroke-linecap="round"/>
<path d="M -35.26711513754838 48.54101966249685 L -26.740087627708682 62.940515043995504" stroke="black" fill="none" stroke-width="1" stroke-linecap="round"/>
<path d="M -17.86042309220486 50.67161249129994 L -26.740087627708682 62.940515043995504" stroke="black" fill="none" stroke-width="1" stroke-linecap="round"/>
<path d="M -44.08389392193548 60.67627457812106 L -51.59684546352782 44.881023367942404" stroke="black" fill="none" stroke-width="1" stroke-linecap="round"/>
<path d="M -35.26711513754838 48.54101966249685 L -44.08389392193548 60.67627457812106" stroke="black" fill="none" stroke-width="1" stroke-linecap="round"/>
<path d="M -51.59684546352782 44.881023367942404 L -58.20203111524979 28.334802903563265" stroke="black" fill="none" stroke-width="1" stroke-linecap="round"/>
<path d="M -42.67239298881565 32.64466115782342 L -51.59684546352782 44.881023367942404" stroke="black" fill="none" stroke-width="1" stroke-linecap="round"/>
<path d="M -35.26711513754838 48.54101966249685 L -51.59684546352782 44.881023367942404" stroke="black" fill="none" stroke-width="1" stroke-linecap="round"/>
<path d="M -58.20203111524979 28.334802903563265 L -63.74121155270499 11.286958461764181" stroke="black" fill="none" stroke-width="1" stroke-linecap="round"/>
<path d="M -48.8897875376489 15.885254915624218 L -58.20203111524979 28.334802903563265" stroke="black" fill="none" stroke-width="1" stroke-linecap="round"/>
<path d="M -42.67239298881565 32.64466115782342 L -58.20203111524979 28.334802903563265" stroke="black" fill="none" stroke-width="1" stroke-linecap="round"/>
<path d="M -63.74121155270499 11.286958461764181 L -68.12312847960233 -5.981645801329086" stroke="black" fill="none" stroke-width="1" stroke-linecap="round"/>
<path d="M -53.710741513251754 -1.3278823734363108 L -63.74121155270499 11.286958461764181" stroke="black" fill="none" stroke-width="1" stroke-linecap="round"/>
<path d="M -48.8897875376489 15.885254915624218 L -63.74121155270499 11.286958461764181" stroke="black" fill="none" stroke-width="1" stroke-linecap="round"/>
<path d="M -68.12312847960233 -5.981645801329086 L -71.32923872213652 -23.176274578121046" stroke="black" fill="none" stroke-width="1" stroke-linecap="round"/>
<path d="M -57.06339097770922 -18.541019662496836 L -68.12312847960233 -5.981645801329086" stroke="black" fill="none" stroke-width="1" stroke-linecap="round"/>
<path d="M -53.710741513251754 -1.3278823734363108 L -68.12312847960233 -5.981645801329086" stroke="black" fill="none" stroke-width="1" stroke-linecap="round"/>
<path d="M -71.32923872213652 -23.176274578121046 L -58.6286918364447 -35.2025171527288" stroke="black" fill="none" stroke-width="1" stroke-linecap="round"/>
<path d="M -57.06339097770922 -18.541019662496836 L -71.32923872213652 -23.176274578121046" stroke="black" fill="none" stroke-width="1" stroke-linecap="round"/>
<path d="M -58.6286918364447 -35.2025171527288 L -44.93341566112436 -46.597485324305936" stroke="black" fill="none" stroke-width="1" stroke-linecap="round"/>
<path d="M -44.233412340585645 -30.496102344541566 L -58.6286918364447 -35.2025171527288" stroke="black" fill="none" stroke-width="1" stroke-linecap="round"/>
<path d="M -57.06339097770922 -18.541019662496836 L -58.6286918364447 -35.2025171527288" stroke="black" fill="none" stroke-width="1" stroke-linecap="round"/>
<path d="M -44.93341566112436 -46.597485324305936 L -30.431653006048126 -57.13363262425875" stroke="black" fill="none" stroke-width="1" stroke-linecap="round"/>
<path d="M -30.215550401028064 -41.588137289060526 L -44.93341566112436 -46.597485324305936" stroke="black" fill="none" stroke-width="1" stroke-linecap="round"/>
<path d="M -44.233412340585645 -30.496102344541566 L -44.93341566112436 -46.597485324305936" stroke="black" fill="none" stroke-width="1" stroke-linecap="round"/>
<path d="M -30.431653006048126 -57.13363262425875 L -15.362321192661524 -66.63737545788" stroke="black" fill="none" stroke-width="1" stroke-linecap="round"/>
<path d="M -15.334640723944696 -51.49228893114547 L -30.431653006048126 -57.13363262425875" stroke="black" fill="none" stroke-width="1" stroke-linecap="round"/>
<path d="M -30.215550401028064 -41.588137289060526 L -30.431653006048126 -57.13363262425875" stroke="black" fill="none" stroke-width="1" stroke-linecap="round"/>
<path d="M -15.362321192661524 -66.63737545788 L 4.592425496802574e-15 -75.0" stroke="black" fill="none" stroke-width="1" stroke-linecap="round"/>
<path d="M 3.67394039744206e-15 -60.0 L -15.362321192661524 -66.63737545788" stroke="black" fill="none" stroke-width="1" stroke-linecap="round"/>
<path d="M -15.334640723944696 -51.49228893114547 L -15.362321192661524 -66.63737545788" stroke="black" fill="none" stroke-width="1" stroke-linecap="round"/>
<path d="M 5.510910596163089e-15 -90.0 L 15.37739885172007 -81.7347622032288" stroke="black" fill="none" stroke-width="1" stroke-linecap="round"/>
<path d="M 4.592425496802574e-15 -75.0 L 5.510910596163089e-15 -90.0" stroke="black" fill="none" stroke-width="1" stroke-linecap="round"/>
<path d="M 15.37739885172007 -81.7347622032288 L 30.55034608584646 -72.50765517039484" stroke="black" fill="none" stroke-width="1" stroke-linecap="round"/>
<path d="M 15.362321192661508 -66.63737545788 L 15.37739885172007 -81.7347622032288" stroke="black" fill="none" stroke-width="1" stroke-linecap="round"/>
<path d="M 4.592425496802574e-15 -75.0 L 15.37739885172007 -81.7347622032288" stroke="black" fill="none" stroke-width="1" stroke-linecap="round"/>
<path d="M 30.55034608584646 -72.50765517039484 L 45.323325601542074 -62.38220593359078" stroke="black" fill="none" stroke-width="1" stroke-linecap="round"/>
<path d="M 30.43165300604812 -57.13363262425876 L 30.55034608584646 -72.50765517039484" stroke="black" fill="none" stroke-width="1" stroke-linecap="round"/>
<path d="M 15.362321192661508 -66.63737545788 L 30.55034608584646 -72.50765517039484" stroke="black" fill="none" stroke-width="1" stroke-linecap="round"/>
<path d="M 45.323325601542074 -62.38220593359078 L 59.51830180652328 -51.461203389946945" stroke="black" fill="none" stroke-width="1" stroke-linecap="round"/>
<path d="M 44.93341566112434 -46.59748532430594 L 45.323325601542074 -62.38220593359078" stroke="black" fill="none" stroke-width="1" stroke-linecap="round"/>
<path d="M 30.43165300604812 -57.13363262425876 L 45.323325601542074 -62.38220593359078" stroke="black" fill="none" stroke-width="1" stroke-linecap="round"/>
<path d="M 59.51830180652328 -51.461203389946945 L 72.98250062675226 -39.8822059335908" stroke="black" fill="none" stroke-width="1" stroke-linecap="round"/>
<path d="M 58.62869183644469 -35.202517152728824 L 59.51830180652328 -51.461203389946945" stroke="black" fill="none" stroke-width="1" stroke-linecap="round"/>
<path d="M 44.93341566112434 -46.59748532430594 L 59.51830180652328 -51.461203389946945" stroke="black" fill="none" stroke-width="1" stroke-linecap="round"/>
<path d="M 72.98250062675226 -39.8822059335908 L 85.59508646656381 -27.811529493745265" stroke="black" fill="none" stroke-width="1" stroke-linecap="round"/>
<path d="M 71.32923872213651 -23.176274578121056 L 72.98250062675226 -39.8822059335908" stroke="black" fill="none" stroke-width="1" stroke-linecap="round"/>
<path d="M 58.62869183644469 -35.202517152728824 L 72.98250062675226 -39.8822059335908" stroke="black" fill="none" stroke-width="1" stroke-linecap="round"/>
<path d="M 85.59508646656381 -27.811529493745265 L 82.48625577567886 -10.632655170394832" stroke="black" fill="none" stroke-width="1" stroke-linecap="round"/>
<path d="M 71.32923872213651 -23.176274578121056 L 85.59508646656381 -27.811529493745265" stroke="black" fill="none" stroke-width="1" stroke-linecap="round"/>
<path d="M 82.48625577567886 -10.632655170394832 L 78.3994540556487 6.649008050085886" stroke="black" fill="none" stroke-width="1" stroke-linecap="round"/>
<path d="M 68.12312847960231 -5.981645801329101 L 82.48625577567886 -10.632655170394832" stroke="black" fill="none" stroke-width="1" stroke-linecap="round"/>
<path d="M 71.32923872213651 -23.176274578121056 L 82.48625577567886 -10.632655170394832" stroke="black" fill="none" stroke-width="1" stroke-linecap="round"/>
<path d="M 78.3994540556487 6.649008050085886 L 73.33468130647336 23.827882373436317" stroke="black" fill="none" stroke-width="1" stroke-linecap="round"/>
<path d="M 63.74121155270499 11.286958461764184 L 78.3994540556487 6.649008050085886" stroke="black" fill="none" stroke-width="1" stroke-linecap="round"/>
<path d="M 68.12312847960231 -5.981645801329101 L 78.3994540556487 6.649008050085886" stroke="black" fill="none" stroke-width="1" stroke-linecap="round"/>
<path d="M 73.33468130647336 23.827882373436317 L 67.33467955495212 40.70288237343631" stroke="black" fill="none" stroke-width="1" stroke-linecap="round"/>
<path d="M 58.20203111524979 28.334802903563272 L 73.33468130647336 23.827882373436317" stroke="black" fill="none" stroke-width="1" stroke-linecap="round"/>
<path d="M 63.74121155270499 11.286958461764184 L 73.33468130647336 23.827882373436317" stroke="black" fill="none" stroke-width="1" stroke-linecap="round"/>
<path d="M 67.33467955495212 40.70288237343631 L 60.48306482301347 57.08620338994694" stroke="black" fill="none" stroke-width="1" stroke-linecap="round"/>
<path d="M 51.59684546352781 44.881023367942404 L 67.33467955495212 40.70288237343631" stroke="black" fill="none" stroke-width="1" stroke-linecap="round"/>
<path d="M 58.20203111524979 28.334802903563272 L 67.33467955495212 40.70288237343631" stroke="black" fill="none" stroke-width="1" stroke-linecap="round"/>
<path d="M 60.48306482301347 57.08620338994694 L 52.90067270632258 72.81152949374527" stroke="black" fill="none" stroke-width="1" stroke-linecap="round"/>
<path d="M 44.08389392193549 60.67627457812106 L 60.48306482301347 57.08620338994694" stroke="black" fill="none" stroke-width="1" stroke-linecap="round"/>
<path d="M 51.59684546352781 44.881023367942404 L 60.48306482301347 57.08620338994694" stroke="black" fill="none" stroke-width="1" stroke-linecap="round"/>
<path d="M 52.90067270632258 72.81152949374527 L 35.6019108223668 75.16341991726746" stroke="black" fill="none" stroke-width="1" stroke-linecap="round"/>
<path d="M 44.08389392193549 60.67627457812106 L 52.90067270632258 72.81152949374527" stroke="black" fill="none" stroke-width="1" stroke-linecap="round"/>
<path d="M 35.6019108223668 75.16341991726746 L 17.90318121998023 76.61696813681958" stroke="black" fill="none" stroke-width="1" stroke-linecap="round"/>
<path d="M 26.740087627708682 62.940515043995504 L 35.6019108223668 75.16341991726746" stroke="black" fill="none" stroke-width="1" stroke-linecap="round"/>
<path d="M 44.08389392193549 60.67627457812106 L 35.6019108223668 75.16341991726746" stroke="black" fill="none" stroke-width="1" stroke-linecap="round"/>
<path d="M 17.90318121998023 76.61696813681958 L 3.875729454447374e-15 77.10864712030894" stroke="black" fill="none" stroke-width="1" stroke-linecap="round"/>
<path d="M 8.962582217621033 64.10935658323726 L 17.90318121998023 76.61696813681958" stroke="black" fill="none" stroke-width="1" stroke-linecap="round"/>
<path d="M 26.740087627708682 62.940515043995504 L 17.90318121998023 76.61696813681958" stroke="black" fill="none" stroke-width="1" stroke-linecap="round"/>
<path d="M 3.875729454447374e-15 77.10864712030894 L -17.903181219980222 76.61696813681958" stroke="black" fill="none" stroke-width="1" stroke-linecap="round"/>
<path d="M -8.962582217621026 64.10935658323726 L 3.875729454447374e-15 77.10864712030894" stroke="black" fill="none" stroke-width="1" stroke-linecap="round"/>
<path d="M 8.962582217621033 64.10935658323726 L 3.875729454447374e-15 77.10864712030894" stroke="black" fill="none" stroke-width="1" stroke-linecap="round"/>
<path d="M -17.903181219980222 76.61696813681958 L -35.601910822366776 75.16341991726748" stroke="black" fill="none" stroke-width="1" stroke-linecap="round"/>
<path d="M -26.740087627708682 62.940515043995504 L -17.903181219980222 76.61696813681958" stroke="black" fill="none" stroke-width="1" stroke-linecap="round"/>
<path d="M -8.962582217621026 64.10935658323726 L -17.903181219980222 76.61696813681958" stroke="black" fill="none" stroke-width="1" stroke-linecap="round"/>
<path d="M -35.601910822366776 75.16341991726748 L -52.900672706322574 72.81152949374527" stroke="black" fill="none" stroke-width="1" stroke-linecap="round"/>
<path d="M -44.08389392193548 60.67627457812106 L -35.601910822366776 75.16341991726748" stroke="black" fill="none" stroke-width="1" stroke-linecap="round"/>
<path d="M -26.740087627708682 62.940515043995504 L -35.601910822366776 75.16341991726748" stroke="black" fill="none" stroke-width="1" stroke-linecap="round"/>
<path d="M -52.900672706322574 72.81152949374527 L -60.48306482301346 57.08620338994695" stroke="black" fill="none" stroke-width="1" stroke-linecap="round"/>
<path d="M -44.08389392193548 60.67627457812106 L -52.900672706322574 72.81152949374527" stroke="black" fill="none" stroke-width="1" stroke-linecap="round"/>
<path d="M -60.48306482301346 57.08620338994695 L -67.3346795549521 40.70288237343633" stroke="black" fill="none" stroke-width="1" stroke-linecap="round"/>
<path d="M -51.59684546352782 44.881023367942404 L -60.48306482301346 57.08620338994695" stroke="black" fill="none" stroke-width="1" stroke-linecap="round"/>
<path d="M -44.08389392193548 60.67627457812106 L -60.48306482301346 57.08620338994695" stroke="black" fill="none" stroke-width="1" stroke-linecap="round"/>
<path d="M -67.3346795549521 40.70288237343633 L -73.33468130647336 23.827882373436324" stroke="black" fill="none" stroke-width="1" stroke-linecap="round"/>
<path d="M -58.20203111524979 28.334802903563265 L -67.3346795549521 40.70288237343633" stroke="black" fill="none" stroke-width="1" stroke-linecap="round"/>
<path d="M -51.59684546352782 44.881023367942404 L -67.3346795549521 40.70288237343633" stroke="black" fill="none" stroke-width="1" stroke-linecap="round"/>
<path d="M -73.33468130647336 23.827882373436324 L -78.3994540556487 6.649008050085908" stroke="black" fill="none" stroke-width="1" stroke-linecap="round"/>
<path d="M -63.74121155270499 11.286958461764181 L -73.33468130647336 23.827882373436324" stroke="black" fill="none" stroke-width="1" stroke-linecap="round"/>
<path d="M -58.20203111524979 28.334802903563265 L -73.33468130647336 23.827882373436324" stroke="black" fill="none" stroke-width="1" stroke-linecap="round"/>
<path d="M -78.3994540556487 6.649008050085908 L -82.48625577567887 -10.632655170394838" stroke="black" fill="none" stroke-width="1" stroke-linecap="round"/>
<path d="M -68.12312847960233 -5.981645801329086 L -78.3994540556487 6.649008050085908" stroke="black" fill="none" stroke-width="1" stroke-linecap="round"/>
<path d="M -63.74121155270499 11.286958461764181 L -78.3994540556487 6.649008050085908" stroke="black" fill="none" stroke-width="1" stroke-linecap="round"/>
<path d="M -82.48625577567887 -10.632655170394838 L -85.59508646656383 -27.811529493745258" stroke="black" fill="none" stroke-width="1" stroke-linecap="round"/>
<path d="M -71.32923872213652 -23.176274578121046 L -82.48625577567887 -10.632655170394838" stroke="black" fill="none" stroke-width="1" stroke-linecap="round"/>
<path d="M -68.12312847960233 -5.981645801329086 L -82.48625577567887 -10.632655170394838" stroke="black" fill="none" stroke-width="1" stroke-linecap="round"/>
<path d="M -85.59508646656383 -27.811529493745258 L -72.98250062675226 -39.88220593359078" stroke="black" fill="none" stroke-width="1" stroke-linecap="round"/>
<path d="M -71.32923872213652 -23.176274578121046 L -85.59508646656383 -27.811529493745258" stroke="black" fill="none" stroke-width="1" stroke-linecap="round"/>
<path d="M -72.98250062675226 -39.88220593359078 L -59.51830180652328 -51.46120338994694" stroke="black" fill="none" stroke-width="1" stroke-linecap="round"/>
<path d="M -58.6286918364447 -35.2025171527288 L -72.98250062675226 -39.88220593359078" stroke="black" fill="none" stroke-width="1" stroke-linecap="round"/>
<path d="M -71.32923872213652 -23.176274578121046 L -72.98250062675226 -39.88220593359078" stroke="black" fill="none" stroke-width="1" stroke-linecap="round"/>
<path d="M -59.51830180652328 -51.46120338994694 L -45.32332560154209 -62.38220593359078" stroke="black" fill="none" stroke-width="1" stroke-linecap="round"/>
<path d="M -44.93341566112436 -46.597485324305936 L -59.51830180652328 -51.46120338994694" stroke="black" fill="none" stroke-width="1" stroke-linecap="round"/>
<path d="M -58.6286918364447 -35.2025171527288 L -59.51830180652328 -51.46120338994694" stroke="black" fill="none" stroke-width="1" stroke-linecap="round"/>
<path d="M -45.32332560154209 -62.38220593359078 L -30.550346085846467 -72.50765517039484" stroke="black" fill="none" stroke-width="1" stroke-linecap="round"/>
<path d="M -30.431653006048126 -57.13363262425875 L -45.32332560154209 -62.38220593359078" stroke="black" fill="none" stroke-width="1" stroke-linecap="round"/>
<path d="M -44.93341566112436 -46.597485324305936 L -45.32332560154209 -62.38220593359078" stroke="black" fill="none" stroke-width="1" stroke-linecap="round"/>
<path d="M -30.550346085846467 -72.50765517039484 L -15.377398851720084 -81.7347622032288" stroke="black" fill="none" stroke-width="1" stroke-linecap="round"/>
<path d="M -15.362321192661524 -66.63737545788 L -30.550346085846467 -72.50765517039484" stroke="black" fill="none" stroke-width="1" stroke-linecap="round"/>
<path d="M -30.431653006048126 -57.13363262425875 L -30.550346085846467 -72.50765517039484" stroke="black" fill="none" stroke-width="1" stroke-linecap="round"/>
<path d="M -15.377398851720084 -81.7347622032288 L 5.510910596163089e-15 -90.0" stroke="black" fill="none" stroke-width="1" stroke-linecap="round"/>
<path d="M 4.592425496802574e-15 -75.0 L -15.377398851720084 -81.7347622032288" stroke="black" fill="none" stroke-width="1" stroke-linecap="round"/>
<path d="M -15.362321192661524 -66.63737545788 L -15.377398851720084 -81.7347622032288" stroke="black" fill="none" stroke-width="1" stroke-linecap="round"/>
<circle cx="0" cy="0" r="3.0" fill="black"/>
<circle cx="9.18485099360515e-16" cy="-15.0" r="3.0" fill="black"/>
<circle cx="14.265847744427303" cy="-4.635254915624211" r="3.0" fill="black"/>
<circle cx="8.816778784387097" cy="12.135254915624213" r="3.0" fill="black"/>
<circle cx="-8.816778784387095" cy="12.135254915624213" r="3.0" fill="black"/>
<circle cx="-14.265847744427305" cy="-4.635254915624209" r="3.0" fill="black"/>
<circle cx="1.83697019872103e-15" cy="-30.0" r="3.0" fill="black"/>
<circle cx="15.107775200514029" cy="-20.794068644530263" r="3.0" fill="black"/>
<circle cx="28.531695488854606" cy="-9.270509831248422" r="3.0" fill="black"/>
<circle cx="24.44489376882445" cy="7.942627457812106" r="3.0" fill="black"/>
<circle cx="17.633557568774194" cy="24.270509831248425" r="3.0" fill="black"/>
<circle cx="1.7082434523835587e-15" cy="25.702882373436317" r="3.0" fill="black"/>
<circle cx="-17.63355756877419" cy="24.270509831248425" r="3.0" fill="black"/>
<circle cx="-24.44489376882445" cy="7.942627457812109" r="3.0" fill="black"/>
<circle cx="-28.53169548885461" cy="-9.270509831248418" r="3.0" fill="black"/>
<circle cx="-15.107775200514032" cy="-20.794068644530263" r="3.0" fill="black"/>
<circle cx="2.7554552980815444e-15" cy="-45.0" r="3.0" fill="black"/>
<circle cx="15.27517304292323" cy="-36.25382758519742" r="3.0" fill="black"/>
<circle cx="29.75915090326164" cy="-25.730601694973473" r="3.0" fill="black"/>
<circle cx="42.79754323328191" cy="-13.905764746872633" r="3.0" fill="black"/>
<circle cx="39.19972702782435" cy="3.324504025042943" r="3.0" fill="black"/>
<circle cx="33.66733977747606" cy="20.351441186718155" r="3.0" fill="black"/>
<circle cx="26.45033635316129" cy="36.405764746872634" r="3.0" fill="black"/>
<circle cx="8.951590609990115" cy="38.30848406840979" r="3.0" fill="black"/>
<circle cx="-8.951590609990111" cy="38.30848406840979" r="3.0" fill="black"/>
<circle cx="-26.450336353161287" cy="36.405764746872634" r="3.0" fill="black"/>
<circle cx="-33.66733977747605" cy="20.351441186718166" r="3.0" fill="black"/>
<circle cx="-39.19972702782435" cy="3.324504025042954" r="3.0" fill="black"/>
<circle cx="-42.797543233281914" cy="-13.905764746872629" r="3.0" fill="black"/>
<circle cx="-29.75915090326164" cy="-25.73060169497347" r="3.0" fill="black"/>
<circle cx="-15.275173042923234" cy="-36.25382758519742" r="3.0" fill="black"/>
<circle cx="3.67394039744206e-15" cy="-60.0" r="3.0" fill="black"/>
<circle cx="15.334640723944691" cy="-51.49228893114547" r="3.0" fill="black"/>
<circle cx="30.215550401028057" cy="-41.588137289060526" r="3.0" fill="black"/>
<circle cx="44.23341234058564" cy="-30.496102344541573" r="3.0" fill="black"/>
<circle cx="57.06339097770921" cy="-18.541019662496844" r="3.0" fill="black"/>
<circle cx="53.71074151325175" cy="-1.3278823734363152" r="3.0" fill="black"/>
<circle cx="48.8897875376489" cy="15.885254915624213" r="3.0" fill="black"/>
<circle cx="42.67239298881565" cy="32.644661157823414" r="3.0" fill="black"/>
<circle cx="35.26711513754839" cy="48.54101966249685" r="3.0" fill="black"/>
<circle cx="17.860423092204854" cy="50.67161249129994" r="3.0" fill="black"/>
<circle cx="3.4164869047671174e-15" cy="51.405764746872634" r="3.0" fill="black"/>
<circle cx="-17.86042309220486" cy="50.67161249129994" r="3.0" fill="black"/>
<circle cx="-35.26711513754838" cy="48.54101966249685" r="3.0" fill="black"/>
<circle cx="-42.67239298881565" cy="32.64466115782342" r="3.0" fill="black"/>
<circle cx="-48.8897875376489" cy="15.885254915624218" r="3.0" fill="black"/>
<circle cx="-53.710741513251754" cy="-1.3278823734363108" r="3.0" fill="black"/>
<circle cx="-57.06339097770922" cy="-18.541019662496836" r="3.0" fill="black"/>
<circle cx="-44.233412340585645" cy="-30.496102344541566" r="3.0" fill="black"/>
<circle cx="-30.215550401028064" cy="-41.588137289060526" r="3.0" fill="black"/>
<circle cx="-15.334640723944696" cy="-51.49228893114547" r="3.0" fill="black"/>
<circle cx="4.592425496802574e-15" cy="-75.0" r="3.0" fill="black"/>
<circle cx="15.362321192661508" cy="-66.63737545788" r="3.0" fill="black"/>
<circle cx="30.43165300604812" cy="-57.13363262425876" r="3.0" fill="black"/>
<circle cx="44.93341566112434" cy="-46.59748532430594" r="3.0" fill="black"/>
<circle cx="58.62869183644469" cy="-35.202517152728824" r="3.0" fill="black"/>
<circle cx="71.32923872213651" cy="-23.176274578121056" r="3.0" fill="black"/>
<circle cx="68.12312847960231" cy="-5.981645801329101" r="3.0" fill="black"/>
<circle cx="63.74121155270499" cy="11.286958461764184" r="3.0" fill="black"/>
<circle cx="58.20203111524979" cy="28.334802903563272" r="3.0" fill="black"/>
<circle cx="51.59684546352781" cy="44.881023367942404" r="3.0" fill="black"/>
<circle cx="44.08389392193549" cy="60.67627457812106" r="3.0" fill="black"/>
<circle cx="26.740087627708682" cy="62.940515043995504" r="3.0" fill="black"/>
<circle cx="8.962582217621033" cy="64.10935658323726" r="3.0" fill="black"/>
<circle cx="-8.962582217621026" cy="64.10935658323726" r="3.0" fill="black"/>
<circle cx="-26.740087627708682" cy="62.940515043995504" r="3.0" fill="black"/>
<circle cx="-44.08389392193548" cy="60.67627457812106" r="3.0" fill="black"/>
<circle cx="-51.59684546352782" cy="44.881023367942404" r="3.0" fill="black"/>
<circle cx="-58.20203111524979" cy="28.334802903563265" r="3.0" fill="black"/>
<circle cx="-63.74121155270499" cy="11.286958461764181" r="3.0" fill="black"/>
<circle cx="-68.12312847960233" cy="-5.981645801329086" r="3.0" fill="black"/>
<circle cx="-71.32923872213652" cy="-23.176274578121046" r="3.0" fill="black"/>
<circle cx="-58.6286918364447" cy="-35.2025171527288" r="3.0" fill="black"/>
<circle cx="-44.93341566112436" cy="-46.597485324305936" r="3.0" fill="black"/>
<circle cx="-30.431653006048126" cy="-57.13363262425875" r="3.0" fill="black"/>
<circle cx="-15.362321192661524" cy="-66.63737545788" r="3.0" fill="black"/>
<circle cx="5.510910596163089e-15" cy="-90.0" r="3.0" fill="black"/>
<circle cx="15.37739885172007" cy="-81.7347622032288" r="3.0" fill="black"/>
<circle cx="30.55034608584646" cy="-72.50765517039484" r="3.0" fill="black"/>
<circle cx="45.323325601542074" cy="-62.38220593359078" r="3.0" fill="black"/>
<circle cx="59.51830180652328" cy="-51.461203389946945" r="3.0" fill="black"/>
<circle cx="72.98250062675226" cy="-39.8822059335908" r="3.0" fill="black"/>
<circle cx="85.59508646656381" cy="-27.811529493745265" r="3.0" fill="black"/>
<circle cx="82.48625577567886" cy="-10.632655170394832" r="3.0" fill="black"/>
<circle cx="78.3994540556487" cy="6.649008050085886" r="3.0" fill="black"/>
<circle cx="73.33468130647336" cy="23.827882373436317" r="3.0" fill="black"/>
<circle cx="67.33467955495212" cy="40.70288237343631" r="3.0" fill="black"/>
<circle cx="60.48306482301347" cy="57.08620338994694" r="3.0" fill="black"/>
<circle cx="52.90067270632258" cy="72.81152949374527" r="3.0" fill="black"/>
<circle cx="35.6019108223668" cy="75.16341991726746" r="3.0" fill="black"/>
<circle cx="17.90318121998023" cy="76.61696813681958" r="3.0" fill="black"/>
<circle cx="3.875729454447374e-15" cy="77.10864712030894" r="3.0" fill="black"/>
<circle cx="-17.903181219980222" cy="76.61696813681958" r="3.0" fill="black"/>
<circle cx="-35.601910822366776" cy="75.16341991726748" r="3.0" fill="black"/>
<circle cx="-52.900672706322574" cy="72.81152949374527" r="3.0" fill="black"/>
<circle cx="-60.48306482301346" cy="57.08620338994695" r="3.0" fill="black"/>
<circle cx="-67.3346795549521" cy="40.70288237343633" r="3.0" fill="black"/>
<circle cx="-73.33468130647336" cy="23.827882373436324" r="3.0" fill="black"/>
<circle cx="-78.3994540556487" cy="6.649008050085908" r="3.0" fill="black"/>
<circle cx="-82.48625577567887" cy="-10.632655170394838" r="3.0" fill="black"/>
<circle cx="-85.59508646656383" cy="-27.811529493745258" r="3.0" fill="black"/>
<circle cx="-72.98250062675226" cy="-39.88220593359078" r="3.0" fill="black"/>
<circle cx="-59.51830180652328" cy="-51.46120338994694" r="3.0" fill="black"/>
<circle cx="-45.32332560154209" cy="-62.38220593359078" r="3.0" fill="black"/>
<circle cx="-30.550346085846467" cy="-72.50765517039484" r="3.0" fill="black"/>
<circle cx="-15.377398851720084" cy="-81.7347622032288" r="3.0" fill="black"/>
</svg>
